<svg width="555" height="520" viewBox="0 0 555 520" fill="none" xmlns="http://www.w3.org/2000/svg" xmlns:xlink="http://www.w3.org/1999/xlink">
<g clip-path="url(#clip0_1_649)">
<rect width="555" height="520" rx="8" fill="url(#pattern0)"/>
<rect x="-308" y="-13" width="1040" height="580" fill="url(#pattern1)"/>
<rect x="-13" y="-13" width="612" height="612" fill="url(#pattern2)"/>
<rect x="-13" y="-13" width="612" height="612" fill="url(#paint0_linear_1_649)"/>
<rect width="555" height="520" fill="url(#paint1_linear_1_649)"/>
<rect x="74" y="190" width="438" height="140" fill="url(#pattern3)"/>

</g>
<defs>
<pattern id="pattern0" patternContentUnits="objectBoundingBox" width="1" height="1">
<use xlink:href="#image0_1_649" transform="matrix(0.000549201 0 0 0.000586166 -0.202977 0)"/>
</pattern>
<pattern id="pattern1" patternContentUnits="objectBoundingBox" width="1" height="1">
<use xlink:href="#image1_1_649" transform="matrix(0.00168487 0 0 0.00302115 -0.00124913 0)"/>
</pattern>
<pattern id="pattern2" patternContentUnits="objectBoundingBox" width="1" height="1">
<use xlink:href="#image2_1_649" transform="scale(0.0025)"/>
</pattern>
<pattern id="pattern3" patternContentUnits="objectBoundingBox" width="1" height="1">
<use xlink:href="#image3_1_649" transform="matrix(0.000244141 0 0 0.000763811 0 -0.000678362)"/>
</pattern>
<linearGradient id="paint0_linear_1_649" x1="21" y1="14.5" x2="452" y2="538" gradientUnits="userSpaceOnUse">
<stop/>
<stop offset="1" stop-color="#046202"/>
</linearGradient>
<linearGradient id="paint1_linear_1_649" x1="393.524" y1="-58.7725" x2="161.476" y2="578.773" gradientUnits="userSpaceOnUse">
<stop offset="0.3" stop-opacity="0"/>
<stop offset="1"/>
</linearGradient>
<clipPath id="clip0_1_649">
<rect width="555" height="520" rx="8" fill="white"/>
</clipPath>
</defs>
</svg>
