<svg width="294" height="79" viewBox="0 0 294 79" fill="none" xmlns="http://www.w3.org/2000/svg">
<path d="M105.902 64.7926L105.061 72.441H103.687L105.061 60.5561L109.589 68.7543L114.116 60.5561L115.491 72.441H114.116L113.275 64.7926L109.589 71.39L105.902 64.7926ZM117.925 70.1449C117.925 70.4252 117.99 70.6677 118.119 70.8725C118.26 71.0774 118.448 71.2337 118.685 71.3415C118.933 71.4385 119.214 71.487 119.526 71.487C119.925 71.487 120.281 71.4062 120.593 71.2445C120.917 71.0828 121.17 70.8564 121.353 70.5653C121.547 70.2635 121.644 69.9185 121.644 69.5304L121.903 70.5006C121.903 70.975 121.758 71.3684 121.467 71.6811C121.186 71.9937 120.836 72.2254 120.416 72.3764C120.006 72.5273 119.596 72.6027 119.187 72.6027C118.734 72.6027 118.308 72.5111 117.909 72.3279C117.521 72.1338 117.209 71.8589 116.971 71.5032C116.734 71.1474 116.616 70.7162 116.616 70.2096C116.616 69.4873 116.869 68.9106 117.376 68.4794C117.893 68.0374 118.61 67.8164 119.526 67.8164C120.065 67.8164 120.513 67.8811 120.868 68.0105C121.235 68.129 121.526 68.2692 121.741 68.4309C121.957 68.5818 122.103 68.7058 122.178 68.8028V69.5628C121.801 69.3041 121.413 69.1208 121.014 69.013C120.615 68.8944 120.189 68.8351 119.736 68.8351C119.316 68.8351 118.971 68.889 118.702 68.9968C118.443 69.1046 118.249 69.2555 118.119 69.4496C117.99 69.6436 117.925 69.8754 117.925 70.1449ZM117.731 66.7169L117.101 65.7628C117.381 65.558 117.764 65.3532 118.249 65.1484C118.745 64.9435 119.338 64.8411 120.027 64.8411C120.61 64.8411 121.116 64.9328 121.547 65.116C121.989 65.2885 122.329 65.5418 122.566 65.876C122.814 66.2102 122.938 66.6198 122.938 67.1049V72.441H121.644V67.2828C121.644 67.0241 121.601 66.8139 121.515 66.6522C121.429 66.4797 121.305 66.3449 121.143 66.2479C120.992 66.1509 120.814 66.0808 120.61 66.0377C120.405 65.9946 120.189 65.973 119.963 65.973C119.596 65.973 119.262 66.0162 118.96 66.1024C118.669 66.1886 118.421 66.291 118.216 66.4096C118.012 66.5282 117.85 66.6306 117.731 66.7169ZM125.047 59.8284H126.341V72.441H125.047V59.8284ZM129.09 65.0028H130.707L127.473 68.0751L131.03 72.441H129.413L125.856 68.0751L129.09 65.0028ZM132.25 61.9305C132.25 61.6826 132.336 61.4724 132.509 61.2999C132.692 61.1274 132.902 61.0412 133.139 61.0412C133.387 61.0412 133.597 61.1274 133.77 61.2999C133.942 61.4724 134.029 61.6826 134.029 61.9305C134.029 62.1677 133.942 62.3779 133.77 62.5612C133.597 62.7336 133.387 62.8199 133.139 62.8199C132.902 62.8199 132.692 62.7336 132.509 62.5612C132.336 62.3779 132.25 62.1677 132.25 61.9305ZM132.493 65.0028H133.786V72.441H132.493V65.0028ZM141.221 67.9134C141.221 67.299 141.086 66.8354 140.816 66.5228C140.547 66.2102 140.153 66.0539 139.636 66.0539C139.259 66.0539 138.924 66.1347 138.633 66.2964C138.353 66.4474 138.132 66.663 137.97 66.9432C137.819 67.2235 137.744 67.5469 137.744 67.9134V72.441H136.45V65.0028H137.744V66.1671C137.992 65.7143 138.299 65.3801 138.666 65.1645C139.043 64.9489 139.474 64.8411 139.959 64.8411C140.746 64.8411 141.366 65.1052 141.819 65.6335C142.282 66.1509 142.514 66.857 142.514 67.7517V72.441H141.221V67.9134ZM144.445 72.9261H145.754C145.754 73.2819 145.851 73.6107 146.046 73.9125C146.24 74.2251 146.514 74.4731 146.87 74.6563C147.226 74.8504 147.646 74.9474 148.131 74.9474C148.509 74.9474 148.881 74.8558 149.247 74.6725C149.614 74.4892 149.916 74.1982 150.153 73.7993C150.401 73.4112 150.525 72.9046 150.525 72.2793V65.0028H151.818V72.2793C151.818 73.131 151.64 73.8424 151.285 74.4138C150.929 74.9959 150.471 75.4325 149.91 75.7236C149.35 76.0146 148.757 76.1601 148.131 76.1601C147.409 76.1601 146.768 76.0254 146.207 75.7559C145.657 75.4864 145.226 75.1037 144.914 74.6078C144.601 74.1227 144.445 73.5622 144.445 72.9261ZM144.299 68.7219C144.299 67.9134 144.466 67.2235 144.8 66.6522C145.135 66.0701 145.582 65.6227 146.143 65.3101C146.703 64.9974 147.318 64.8411 147.986 64.8411C148.611 64.8411 149.156 64.9974 149.619 65.3101C150.083 65.6227 150.444 66.0701 150.702 66.6522C150.972 67.2235 151.107 67.9134 151.107 68.7219C151.107 69.5197 150.972 70.2096 150.702 70.7917C150.444 71.3738 150.083 71.8212 149.619 72.1338C149.156 72.4464 148.611 72.6027 147.986 72.6027C147.318 72.6027 146.703 72.4464 146.143 72.1338C145.582 71.8212 145.135 71.3738 144.8 70.7917C144.466 70.2096 144.299 69.5197 144.299 68.7219ZM145.609 68.7219C145.609 69.2933 145.722 69.7784 145.948 70.1772C146.186 70.5761 146.498 70.8779 146.886 71.0828C147.274 71.2876 147.695 71.39 148.148 71.39C148.525 71.39 148.897 71.2876 149.263 71.0828C149.63 70.8779 149.932 70.5761 150.169 70.1772C150.406 69.7784 150.525 69.2933 150.525 68.7219C150.525 68.2907 150.455 67.9134 150.314 67.59C150.174 67.2559 149.986 66.9756 149.748 66.7492C149.522 66.5228 149.269 66.3503 148.988 66.2318C148.708 66.1132 148.428 66.0539 148.148 66.0539C147.695 66.0539 147.274 66.1563 146.886 66.3611C146.498 66.5659 146.186 66.8678 145.948 67.2666C145.722 67.6655 145.609 68.1506 145.609 68.7219ZM169.171 69.4496L172.113 61.122H173.65L169.203 73.007L165.807 64.2105L162.411 73.007L157.965 61.122H159.501L162.508 69.4496L165.807 60.5561L169.171 69.4496ZM176.611 72.6027C175.921 72.6027 175.307 72.441 174.768 72.1176C174.24 71.7835 173.825 71.3253 173.523 70.7432C173.232 70.1611 173.086 69.4873 173.086 68.7219C173.086 67.9458 173.237 67.2666 173.539 66.6845C173.852 66.1024 174.283 65.6496 174.833 65.3262C175.393 65.0028 176.04 64.8411 176.773 64.8411C177.506 64.8411 178.131 64.9974 178.649 65.3101C179.177 65.6119 179.581 66.0485 179.861 66.6198C180.142 67.1912 180.282 67.8703 180.282 68.6573C180.282 68.7327 180.276 68.8136 180.266 68.8998C180.266 68.9753 180.266 69.0238 180.266 69.0453H173.911V67.9458H179.247L178.729 68.6896C178.762 68.6357 178.794 68.5548 178.827 68.447C178.859 68.3285 178.875 68.2314 178.875 68.156C178.875 67.714 178.783 67.3313 178.6 67.0079C178.428 66.6845 178.185 66.4312 177.872 66.2479C177.56 66.0647 177.193 65.973 176.773 65.973C176.277 65.973 175.851 66.0808 175.495 66.2964C175.151 66.5013 174.881 66.8031 174.687 67.202C174.504 67.59 174.407 68.0697 174.396 68.6411C174.396 69.2232 174.488 69.7191 174.671 70.1287C174.854 70.5384 175.124 70.851 175.479 71.0666C175.835 71.2822 176.266 71.39 176.773 71.39C177.28 71.39 177.727 71.2822 178.115 71.0666C178.503 70.8402 178.832 70.5006 179.101 70.0479L180.152 70.7108C179.764 71.3361 179.274 71.8104 178.681 72.1338C178.099 72.4464 177.409 72.6027 176.611 72.6027ZM183.268 59.8284V72.441H181.974V59.8284H183.268ZM189.493 68.7219C189.493 69.5197 189.326 70.2096 188.992 70.7917C188.658 71.3738 188.21 71.8212 187.65 72.1338C187.1 72.4464 186.485 72.6027 185.806 72.6027C185.192 72.6027 184.647 72.4464 184.173 72.1338C183.71 71.8212 183.343 71.3738 183.074 70.7917C182.815 70.2096 182.685 69.5197 182.685 68.7219C182.685 67.9134 182.815 67.2235 183.074 66.6522C183.343 66.0701 183.71 65.6227 184.173 65.3101C184.647 64.9974 185.192 64.8411 185.806 64.8411C186.485 64.8411 187.1 64.9974 187.65 65.3101C188.21 65.6227 188.658 66.0701 188.992 66.6522C189.326 67.2235 189.493 67.9134 189.493 68.7219ZM188.183 68.7219C188.183 68.1506 188.065 67.6655 187.828 67.2666C187.601 66.8678 187.294 66.5659 186.906 66.3611C186.529 66.1563 186.108 66.0539 185.645 66.0539C185.267 66.0539 184.895 66.1563 184.529 66.3611C184.162 66.5659 183.86 66.8678 183.623 67.2666C183.386 67.6655 183.268 68.1506 183.268 68.7219C183.268 69.2933 183.386 69.7784 183.623 70.1772C183.86 70.5761 184.162 70.8779 184.529 71.0828C184.895 71.2876 185.267 71.39 185.645 71.39C186.108 71.39 186.529 71.2876 186.906 71.0828C187.294 70.8779 187.601 70.5761 187.828 70.1772C188.065 69.7784 188.183 69.2933 188.183 68.7219ZM194.155 66.8624V65.973C194.522 65.973 194.845 65.9245 195.125 65.8275C195.406 65.7197 195.643 65.5796 195.837 65.4071C196.031 65.2238 196.176 65.0136 196.273 64.7765C196.381 64.5393 196.435 64.286 196.435 64.0165C196.435 63.6607 196.37 63.3481 196.241 63.0786C196.112 62.7983 195.918 62.5827 195.659 62.4318C195.411 62.2809 195.098 62.2054 194.721 62.2054C194.193 62.2054 193.745 62.3725 193.379 62.7067C193.012 63.0301 192.829 63.4397 192.829 63.9356H191.519C191.519 63.3427 191.654 62.8253 191.924 62.3833C192.204 61.9413 192.581 61.5964 193.055 61.3484C193.541 61.0897 194.09 60.9603 194.705 60.9603C195.352 60.9603 195.907 61.1005 196.37 61.3808C196.845 61.661 197.206 62.0276 197.454 62.4803C197.712 62.9331 197.842 63.429 197.842 63.968C197.842 64.4962 197.685 64.9813 197.373 65.4233C197.06 65.8652 196.629 66.2156 196.079 66.4743C195.529 66.733 194.888 66.8624 194.155 66.8624ZM194.64 72.6027C194.09 72.6027 193.594 72.5219 193.153 72.3602C192.711 72.1985 192.333 71.9775 192.021 71.6972C191.708 71.4062 191.465 71.072 191.293 70.6947C191.12 70.3066 191.034 69.8916 191.034 69.4496H192.425C192.425 69.8053 192.516 70.1233 192.7 70.4036C192.894 70.6839 193.158 70.9049 193.492 71.0666C193.826 71.2283 194.209 71.3091 194.64 71.3091C195.071 71.3091 195.443 71.2283 195.756 71.0666C196.079 70.8941 196.327 70.6569 196.5 70.3551C196.672 70.0533 196.758 69.6975 196.758 69.2879C196.758 68.9429 196.688 68.6411 196.548 68.3824C196.419 68.1129 196.236 67.8919 195.998 67.7194C195.761 67.5361 195.486 67.4014 195.174 67.3151C194.861 67.2289 194.522 67.1858 194.155 67.1858V66.2964C194.705 66.2964 195.217 66.3557 195.691 66.4743C196.176 66.5929 196.602 66.7815 196.969 67.0403C197.346 67.2882 197.637 67.6116 197.842 68.0105C198.057 68.4093 198.165 68.889 198.165 69.4496C198.165 70.0856 198.009 70.6408 197.696 71.1151C197.394 71.5894 196.979 71.9559 196.451 72.2147C195.923 72.4734 195.319 72.6027 194.64 72.6027ZM205.534 70.1449C205.534 70.4252 205.599 70.6677 205.728 70.8725C205.868 71.0774 206.057 71.2337 206.294 71.3415C206.542 71.4385 206.822 71.487 207.135 71.487C207.534 71.487 207.889 71.4062 208.202 71.2445C208.525 71.0828 208.779 70.8564 208.962 70.5653C209.156 70.2635 209.253 69.9185 209.253 69.5304L209.512 70.5006C209.512 70.975 209.366 71.3684 209.075 71.6811C208.795 71.9937 208.445 72.2254 208.024 72.3764C207.614 72.5273 207.205 72.6027 206.795 72.6027C206.342 72.6027 205.917 72.5111 205.518 72.3279C205.13 72.1338 204.817 71.8589 204.58 71.5032C204.343 71.1474 204.224 70.7162 204.224 70.2096C204.224 69.4873 204.477 68.9106 204.984 68.4794C205.502 68.0374 206.218 67.8164 207.135 67.8164C207.674 67.8164 208.121 67.8811 208.477 68.0105C208.843 68.129 209.134 68.2692 209.35 68.4309C209.566 68.5818 209.711 68.7058 209.787 68.8028V69.5628C209.409 69.3041 209.021 69.1208 208.622 69.013C208.224 68.8944 207.798 68.8351 207.345 68.8351C206.925 68.8351 206.58 68.889 206.31 68.9968C206.051 69.1046 205.857 69.2555 205.728 69.4496C205.599 69.6436 205.534 69.8754 205.534 70.1449ZM205.34 66.7169L204.709 65.7628C204.99 65.558 205.372 65.3532 205.857 65.1484C206.353 64.9435 206.946 64.8411 207.636 64.8411C208.218 64.8411 208.725 64.9328 209.156 65.116C209.598 65.2885 209.938 65.5418 210.175 65.876C210.423 66.2102 210.547 66.6198 210.547 67.1049V72.441H209.253V67.2828C209.253 67.0241 209.21 66.8139 209.124 66.6522C209.037 66.4797 208.913 66.3449 208.752 66.2479C208.601 66.1509 208.423 66.0808 208.218 66.0377C208.013 65.9946 207.798 65.973 207.571 65.973C207.205 65.973 206.871 66.0162 206.569 66.1024C206.278 66.1886 206.03 66.291 205.825 66.4096C205.62 66.5282 205.458 66.6306 205.34 66.7169ZM217.892 70.1611C218.043 70.3874 218.215 70.5977 218.409 70.7917C218.603 70.9857 218.824 71.142 219.072 71.2606C219.331 71.3684 219.611 71.4223 219.913 71.4223C220.28 71.4223 220.565 71.3415 220.77 71.1798C220.986 71.0073 221.094 70.7755 221.094 70.4845C221.094 70.2257 221.007 70.0101 220.835 69.8377C220.673 69.6544 220.463 69.5035 220.204 69.3849C219.945 69.2555 219.671 69.137 219.379 69.0292C219.056 68.8998 218.727 68.7489 218.393 68.5764C218.07 68.3931 217.795 68.1614 217.568 67.8811C217.353 67.59 217.245 67.2289 217.245 66.7977C217.245 66.3557 217.358 65.9892 217.585 65.6981C217.822 65.4071 218.124 65.1915 218.49 65.0513C218.867 64.9112 219.256 64.8411 219.654 64.8411C220.053 64.8411 220.425 64.9058 220.77 65.0352C221.126 65.1645 221.438 65.337 221.708 65.5526C221.977 65.7682 222.188 66.0162 222.339 66.2964L221.304 66.9594C221.099 66.6791 220.84 66.4474 220.528 66.2641C220.226 66.0808 219.881 65.9892 219.493 65.9892C219.223 65.9892 218.991 66.0485 218.797 66.1671C218.603 66.2857 218.506 66.4689 218.506 66.7169C218.506 66.9109 218.582 67.0834 218.733 67.2343C218.884 67.3852 219.078 67.52 219.315 67.6385C219.552 67.7571 219.8 67.8703 220.059 67.9781C220.49 68.1506 220.883 68.3392 221.239 68.5441C221.595 68.7381 221.875 68.9753 222.08 69.2555C222.295 69.5358 222.403 69.897 222.403 70.3389C222.403 70.9857 222.166 71.5247 221.692 71.9559C221.228 72.3871 220.614 72.6027 219.848 72.6027C219.353 72.6027 218.905 72.5165 218.506 72.344C218.107 72.1608 217.768 71.929 217.488 71.6487C217.218 71.3684 217.013 71.0828 216.873 70.7917L217.892 70.1611ZM224.688 70.1449C224.688 70.4252 224.753 70.6677 224.882 70.8725C225.023 71.0774 225.211 71.2337 225.448 71.3415C225.696 71.4385 225.977 71.487 226.289 71.487C226.688 71.487 227.044 71.4062 227.356 71.2445C227.68 71.0828 227.933 70.8564 228.116 70.5653C228.311 70.2635 228.408 69.9185 228.408 69.5304L228.666 70.5006C228.666 70.975 228.521 71.3684 228.23 71.6811C227.949 71.9937 227.599 72.2254 227.179 72.3764C226.769 72.5273 226.359 72.6027 225.95 72.6027C225.497 72.6027 225.071 72.5111 224.672 72.3279C224.284 72.1338 223.972 71.8589 223.734 71.5032C223.497 71.1474 223.379 70.7162 223.379 70.2096C223.379 69.4873 223.632 68.9106 224.139 68.4794C224.656 68.0374 225.373 67.8164 226.289 67.8164C226.828 67.8164 227.276 67.8811 227.631 68.0105C227.998 68.129 228.289 68.2692 228.505 68.4309C228.72 68.5818 228.866 68.7058 228.941 68.8028V69.5628C228.564 69.3041 228.176 69.1208 227.777 69.013C227.378 68.8944 226.952 68.8351 226.499 68.8351C226.079 68.8351 225.734 68.889 225.465 68.9968C225.206 69.1046 225.012 69.2555 224.882 69.4496C224.753 69.6436 224.688 69.8754 224.688 70.1449ZM224.494 66.7169L223.864 65.7628C224.144 65.558 224.527 65.3532 225.012 65.1484C225.508 64.9435 226.101 64.8411 226.791 64.8411C227.373 64.8411 227.879 64.9328 228.311 65.116C228.752 65.2885 229.092 65.5418 229.329 65.876C229.577 66.2102 229.701 66.6198 229.701 67.1049V72.441H228.408V67.2828C228.408 67.0241 228.364 66.8139 228.278 66.6522C228.192 66.4797 228.068 66.3449 227.906 66.2479C227.755 66.1509 227.577 66.0808 227.373 66.0377C227.168 65.9946 226.952 65.973 226.726 65.973C226.359 65.973 226.025 66.0162 225.723 66.1024C225.432 66.1886 225.184 66.291 224.979 66.4096C224.775 66.5282 224.613 66.6306 224.494 66.7169ZM231.325 65.0028H235.044V66.2156H231.325V65.0028ZM234.915 61.3808C234.807 61.1975 234.678 61.0843 234.527 61.0412C234.387 60.9873 234.252 60.9603 234.123 60.9603C233.961 60.9603 233.821 61.0088 233.702 61.1059C233.595 61.1921 233.508 61.343 233.444 61.5586C233.379 61.7742 233.347 62.0599 233.347 62.4156V72.441H232.053V62.2539C232.053 61.661 232.139 61.1759 232.312 60.7986C232.484 60.4213 232.727 60.1411 233.039 59.9578C233.363 59.7638 233.751 59.6667 234.204 59.6667C234.441 59.6667 234.651 59.6991 234.834 59.7638C235.017 59.8284 235.174 59.9093 235.303 60.0063C235.443 60.1033 235.551 60.2057 235.627 60.3135L234.915 61.3808ZM239.396 72.6027C238.706 72.6027 238.092 72.441 237.553 72.1176C237.025 71.7835 236.61 71.3253 236.308 70.7432C236.017 70.1611 235.871 69.4873 235.871 68.7219C235.871 67.9458 236.022 67.2666 236.324 66.6845C236.637 66.1024 237.068 65.6496 237.618 65.3262C238.178 65.0028 238.825 64.8411 239.558 64.8411C240.291 64.8411 240.916 64.9974 241.434 65.3101C241.962 65.6119 242.366 66.0485 242.646 66.6198C242.927 67.1912 243.067 67.8703 243.067 68.6573C243.067 68.7327 243.062 68.8136 243.051 68.8998C243.051 68.9753 243.051 69.0238 243.051 69.0453H236.696V67.9458H242.032L241.515 68.6896C241.547 68.6357 241.579 68.5548 241.612 68.447C241.644 68.3285 241.66 68.2314 241.66 68.156C241.66 67.714 241.568 67.3313 241.385 67.0079C241.213 66.6845 240.97 66.4312 240.658 66.2479C240.345 66.0647 239.978 65.973 239.558 65.973C239.062 65.973 238.636 66.0808 238.281 66.2964C237.936 66.5013 237.666 66.8031 237.472 67.202C237.289 67.59 237.192 68.0697 237.181 68.6411C237.181 69.2232 237.273 69.7191 237.456 70.1287C237.639 70.5384 237.909 70.851 238.264 71.0666C238.62 71.2822 239.051 71.39 239.558 71.39C240.065 71.39 240.512 71.2822 240.9 71.0666C241.288 70.8402 241.617 70.5006 241.886 70.0479L242.938 70.7108C242.549 71.3361 242.059 71.8104 241.466 72.1338C240.884 72.4464 240.194 72.6027 239.396 72.6027ZM246.134 65.0028V72.441H244.84V65.0028H246.134ZM248.381 66.4258C248.209 66.2964 248.052 66.2048 247.912 66.1509C247.772 66.0862 247.594 66.0539 247.379 66.0539C247.055 66.0539 246.802 66.1347 246.619 66.2964C246.435 66.4581 246.306 66.6791 246.231 66.9594C246.166 67.2397 246.134 67.5577 246.134 67.9134H245.551C245.551 67.3205 245.654 66.7977 245.859 66.3449C246.074 65.8814 246.349 65.5149 246.683 65.2454C247.017 64.9759 247.357 64.8411 247.702 64.8411C247.972 64.8411 248.219 64.8789 248.446 64.9543C248.683 65.019 248.899 65.1538 249.093 65.3586L248.381 66.4258ZM256.443 75.9984H255.15V65.0028H256.443V75.9984ZM262.669 68.7219C262.669 69.5197 262.502 70.2096 262.167 70.7917C261.833 71.3738 261.386 71.8212 260.825 72.1338C260.275 72.4464 259.661 72.6027 258.982 72.6027C258.367 72.6027 257.823 72.4464 257.349 72.1338C256.885 71.8212 256.519 71.3738 256.249 70.7917C255.99 70.2096 255.861 69.5197 255.861 68.7219C255.861 67.9134 255.99 67.2235 256.249 66.6522C256.519 66.0701 256.885 65.6227 257.349 65.3101C257.823 64.9974 258.367 64.8411 258.982 64.8411C259.661 64.8411 260.275 64.9974 260.825 65.3101C261.386 65.6227 261.833 66.0701 262.167 66.6522C262.502 67.2235 262.669 67.9134 262.669 68.7219ZM261.359 68.7219C261.359 68.1506 261.24 67.6655 261.003 67.2666C260.777 66.8678 260.469 66.5659 260.081 66.3611C259.704 66.1563 259.284 66.0539 258.82 66.0539C258.443 66.0539 258.071 66.1563 257.704 66.3611C257.338 66.5659 257.036 66.8678 256.799 67.2666C256.562 67.6655 256.443 68.1506 256.443 68.7219C256.443 69.2933 256.562 69.7784 256.799 70.1772C257.036 70.5761 257.338 70.8779 257.704 71.0828C258.071 71.2876 258.443 71.39 258.82 71.39C259.284 71.39 259.704 71.2876 260.081 71.0828C260.469 70.8779 260.777 70.5761 261.003 70.1772C261.24 69.7784 261.359 69.2933 261.359 68.7219ZM264.452 59.8284H265.746V72.441H264.452V59.8284ZM268.761 70.1449C268.761 70.4252 268.826 70.6677 268.955 70.8725C269.095 71.0774 269.284 71.2337 269.521 71.3415C269.769 71.4385 270.049 71.487 270.362 71.487C270.761 71.487 271.117 71.4062 271.429 71.2445C271.753 71.0828 272.006 70.8564 272.189 70.5653C272.383 70.2635 272.48 69.9185 272.48 69.5304L272.739 70.5006C272.739 70.975 272.593 71.3684 272.302 71.6811C272.022 71.9937 271.672 72.2254 271.251 72.3764C270.842 72.5273 270.432 72.6027 270.022 72.6027C269.57 72.6027 269.144 72.5111 268.745 72.3279C268.357 72.1338 268.044 71.8589 267.807 71.5032C267.57 71.1474 267.451 70.7162 267.451 70.2096C267.451 69.4873 267.705 68.9106 268.211 68.4794C268.729 68.0374 269.446 67.8164 270.362 67.8164C270.901 67.8164 271.348 67.8811 271.704 68.0105C272.071 68.129 272.362 68.2692 272.577 68.4309C272.793 68.5818 272.938 68.7058 273.014 68.8028V69.5628C272.637 69.3041 272.248 69.1208 271.85 69.013C271.451 68.8944 271.025 68.8351 270.572 68.8351C270.152 68.8351 269.807 68.889 269.537 68.9968C269.279 69.1046 269.085 69.2555 268.955 69.4496C268.826 69.6436 268.761 69.8754 268.761 70.1449ZM268.567 66.7169L267.936 65.7628C268.217 65.558 268.599 65.3532 269.085 65.1484C269.58 64.9435 270.173 64.8411 270.863 64.8411C271.445 64.8411 271.952 64.9328 272.383 65.116C272.825 65.2885 273.165 65.5418 273.402 65.876C273.65 66.2102 273.774 66.6198 273.774 67.1049V72.441H272.48V67.2828C272.48 67.0241 272.437 66.8139 272.351 66.6522C272.265 66.4797 272.141 66.3449 271.979 66.2479C271.828 66.1509 271.65 66.0808 271.445 66.0377C271.241 65.9946 271.025 65.973 270.799 65.973C270.432 65.973 270.098 66.0162 269.796 66.1024C269.505 66.1886 269.257 66.291 269.052 66.4096C268.847 66.5282 268.686 66.6306 268.567 66.7169ZM276.546 68.7219C276.546 69.2394 276.654 69.6975 276.87 70.0964C277.096 70.4952 277.398 70.8133 277.775 71.0504C278.163 71.2768 278.6 71.39 279.085 71.39C279.484 71.39 279.856 71.3307 280.201 71.2121C280.556 71.0828 280.864 70.9157 281.122 70.7108C281.381 70.4952 281.564 70.2689 281.672 70.0317V71.6487C281.413 71.9506 281.041 72.1877 280.556 72.3602C280.082 72.5219 279.591 72.6027 279.085 72.6027C278.363 72.6027 277.71 72.4357 277.128 72.1015C276.546 71.7673 276.083 71.3091 275.738 70.727C275.403 70.1341 275.236 69.4658 275.236 68.7219C275.236 67.9673 275.403 67.299 275.738 66.7169C276.083 66.1347 276.546 65.6766 277.128 65.3424C277.71 65.0082 278.363 64.8411 279.085 64.8411C279.591 64.8411 280.082 64.9274 280.556 65.0999C281.041 65.2616 281.413 65.4933 281.672 65.7952V67.4122C281.564 67.1642 281.381 66.9378 281.122 66.733C280.864 66.5282 280.556 66.3665 280.201 66.2479C279.856 66.1186 279.484 66.0539 279.085 66.0539C278.6 66.0539 278.163 66.1671 277.775 66.3935C277.398 66.6198 277.096 66.9378 276.87 67.3475C276.654 67.7463 276.546 68.2045 276.546 68.7219ZM286.564 72.6027C285.874 72.6027 285.26 72.441 284.721 72.1176C284.192 71.7835 283.777 71.3253 283.476 70.7432C283.185 70.1611 283.039 69.4873 283.039 68.7219C283.039 67.9458 283.19 67.2666 283.492 66.6845C283.804 66.1024 284.236 65.6496 284.785 65.3262C285.346 65.0028 285.993 64.8411 286.726 64.8411C287.459 64.8411 288.084 64.9974 288.601 65.3101C289.13 65.6119 289.534 66.0485 289.814 66.6198C290.095 67.1912 290.235 67.8703 290.235 68.6573C290.235 68.7327 290.229 68.8136 290.218 68.8998C290.218 68.9753 290.218 69.0238 290.218 69.0453H283.864V67.9458H289.2L288.682 68.6896C288.715 68.6357 288.747 68.5548 288.779 68.447C288.812 68.3285 288.828 68.2314 288.828 68.156C288.828 67.714 288.736 67.3313 288.553 67.0079C288.381 66.6845 288.138 66.4312 287.825 66.2479C287.513 66.0647 287.146 65.973 286.726 65.973C286.23 65.973 285.804 66.0808 285.448 66.2964C285.103 66.5013 284.834 66.8031 284.64 67.202C284.457 67.59 284.36 68.0697 284.349 68.6411C284.349 69.2232 284.44 69.7191 284.624 70.1287C284.807 70.5384 285.076 70.851 285.432 71.0666C285.788 71.2822 286.219 71.39 286.726 71.39C287.232 71.39 287.68 71.2822 288.068 71.0666C288.456 70.8402 288.785 70.5006 289.054 70.0479L290.105 70.7108C289.717 71.3361 289.227 71.8104 288.634 72.1338C288.052 72.4464 287.362 72.6027 286.564 72.6027Z" fill="#EAEAEA"/>
<path d="M107.954 28.875C107.954 33.1618 106.39 36.7341 103.262 39.5919L106.619 43.0294H102.777L101.037 41.25C98.7993 42.625 96.3994 43.3125 93.8376 43.3125C90.1973 43.3125 86.921 41.9375 84.0087 39.1875C81.1233 36.4105 79.6807 32.973 79.6807 28.875C79.6807 24.777 81.1233 21.3529 84.0087 18.6029C86.921 15.826 90.1973 14.4375 93.8376 14.4375C97.5589 14.4375 100.835 15.8125 103.667 18.5625C106.525 21.3125 107.954 24.75 107.954 28.875ZM93.8376 40.1176C95.6444 40.1176 97.2758 39.7132 98.7319 38.9044L92.7455 32.7574H96.5881L100.997 37.2868C103.262 35.1029 104.395 32.299 104.395 28.875C104.395 25.5858 103.357 22.8897 101.28 20.7868C99.2308 18.6569 96.7499 17.5919 93.8376 17.5919C91.0871 17.5919 88.6333 18.6569 86.476 20.7868C84.3457 22.9167 83.2806 25.6127 83.2806 28.875C83.2806 32.1103 84.3457 34.7929 86.476 36.9228C88.6333 39.0527 91.0871 40.1176 93.8376 40.1176Z" fill="white"/>
<path d="M129.587 22H132.823V43.0294H129.587V37.9338C129.318 39.0931 128.509 40.2794 127.16 41.4926C125.812 42.7059 124.113 43.3125 122.064 43.3125C119.799 43.3125 117.925 42.5846 116.441 41.1287C114.958 39.6728 114.217 37.4216 114.217 34.375V22H117.453V34.2941C117.453 36.424 117.911 37.9877 118.828 38.9853C119.745 39.9828 120.985 40.4816 122.549 40.4816C124.302 40.4816 125.825 39.8076 127.12 38.4596C128.414 37.0846 129.237 35.6017 129.587 34.011V22Z" fill="white"/>
<path d="M143.105 14.7206V17.7537H139.829V14.7206H143.105ZM143.105 22V43.0294H139.829V22H143.105Z" fill="white"/>
<path d="M153.694 14.7206V43.0294H150.418V14.7206H153.694Z" fill="white"/>
<path d="M164.091 14.7206V43.0294H160.814V14.7206H164.091Z" fill="white"/>
<path d="M192.932 43.0294L189.413 35.1434H176.793L173.274 43.0294H169.674L182.739 14.7206H183.467L196.491 43.0294H192.932ZM178.047 32.3125H188.159L183.103 20.9081L178.047 32.3125Z" fill="white"/>
<path d="M216.923 22H220.159V43.0294H216.923V37.9338C216.653 39.0931 215.844 40.2794 214.496 41.4926C213.148 42.7059 211.449 43.3125 209.399 43.3125C207.134 43.3125 205.26 42.5846 203.777 41.1287C202.294 39.6728 201.552 37.4216 201.552 34.375V22H204.788V34.2941C204.788 36.424 205.247 37.9877 206.164 38.9853C207.08 39.9828 208.321 40.4816 209.885 40.4816C211.638 40.4816 213.161 39.8076 214.455 38.4596C215.75 37.0846 216.572 35.6017 216.923 34.011V22Z" fill="white"/>
<path d="M243.425 14.7206H246.66V43.0294H243.425V38.9044C242.858 40.1985 241.914 41.2635 240.593 42.0993C239.272 42.9081 237.802 43.3125 236.184 43.3125C233.649 43.3125 231.357 42.3554 229.308 40.4412C227.259 38.527 226.234 35.8848 226.234 32.5147C226.234 30.7892 226.544 29.2255 227.164 27.8235C227.784 26.3946 228.58 25.2623 229.551 24.4265C230.521 23.5637 231.573 22.9032 232.706 22.4449C233.865 21.9865 235.025 21.7574 236.184 21.7574C237.829 21.7574 239.312 22.1483 240.634 22.9301C241.955 23.712 242.885 24.7365 243.425 26.0037V14.7206ZM231.654 38.3787C233.11 39.7806 234.755 40.4816 236.589 40.4816C238.422 40.4816 240.04 39.8076 241.443 38.4596C242.845 37.0846 243.546 35.1029 243.546 32.5147C243.546 29.9265 242.845 27.9583 241.443 26.6103C240.04 25.2623 238.422 24.5882 236.589 24.5882C234.755 24.5882 233.11 25.2892 231.654 26.6912C230.198 28.0931 229.47 30.0343 229.47 32.5147C229.47 34.9951 230.198 36.9498 231.654 38.3787Z" fill="white"/>
<path d="M256.716 14.7206V17.7537H253.44V14.7206H256.716ZM256.716 22V43.0294H253.44V22H256.716Z" fill="white"/>
<path d="M270.299 40.4412C271.216 40.4412 272.146 40.2255 273.09 39.7941V42.5441C272.119 43.0294 270.919 43.2721 269.49 43.2721C266.766 43.2721 265.404 41.7757 265.404 38.7831V24.6691H262.816V22H265.404V18.3603H268.64V22H273.049V24.6691H268.64V38.5C268.64 39.7941 269.193 40.4412 270.299 40.4412Z" fill="white"/>
<path d="M289.689 27.0147C288.745 25.3431 287.343 24.5074 285.482 24.5074C284.458 24.5074 283.622 24.777 282.975 25.3162C282.354 25.8284 282.044 26.462 282.044 27.2169C282.044 27.9179 282.26 28.511 282.692 28.9963C283.15 29.4816 283.932 29.913 285.038 30.2904L287.181 31.0588C289.258 31.7868 290.808 32.5821 291.833 33.4449C292.858 34.3076 293.37 35.5748 293.37 37.2463C293.37 39.0797 292.574 40.549 290.983 41.6544C289.392 42.7598 287.613 43.3125 285.644 43.3125C283.784 43.3125 282.085 42.8137 280.548 41.8162C279.011 40.8186 278.013 39.4841 277.555 37.8125L280.386 37.0441C280.736 38.0956 281.411 38.9449 282.408 39.5919C283.406 40.212 284.485 40.5221 285.644 40.5221C286.777 40.5221 287.788 40.2255 288.678 39.6324C289.568 39.0123 290.013 38.2169 290.013 37.2463C290.013 36.4105 289.73 35.723 289.163 35.1838C288.597 34.6446 287.734 34.1728 286.575 33.7684L284.148 32.9191C282.206 32.2181 280.817 31.4363 279.981 30.5735C279.146 29.7108 278.728 28.6054 278.728 27.2574C278.728 25.6936 279.375 24.386 280.669 23.3346C281.99 22.2831 283.581 21.7574 285.442 21.7574C288.813 21.7574 291.213 23.2537 292.642 26.2463L289.689 27.0147Z" fill="white"/>
<path d="M60.4176 32.2137L34.2964 57.75L31.9863 54.1407L56.686 29.236V29.1457L37.5837 9.47461L39.0053 5.41406L61.5726 28.9652L60.4176 32.2137Z" fill="white"/>
<path fill-rule="evenodd" clip-rule="evenodd" d="M19.6182 40.425C19.894 39.5047 20.2618 38.6764 20.6296 37.8481C22.1926 34.627 24.3074 31.774 26.606 29.1051C29.6402 25.6999 33.0422 22.6629 36.9039 20.178C38.5589 19.0736 40.3059 18.1533 42.2367 17.5091C42.3287 17.417 42.5126 17.417 42.6965 17.325L41.5931 18.7055C40.3978 20.178 39.1106 21.6505 38.0992 23.3071C38.0072 23.4912 37.9153 23.4912 37.7314 23.4912C36.9958 23.6752 36.1683 23.8593 35.3408 23.8593C35.6167 24.2274 36.0764 24.4115 36.4442 24.5955C36.6281 24.6876 36.9958 24.6876 37.0878 24.9637C37.0878 25.1477 36.8119 25.4238 36.72 25.6079C36.5361 26.068 36.1683 26.3441 35.7086 26.4362C34.973 26.6202 34.2375 26.8043 33.41 26.8043C33.41 26.9884 33.5019 26.9884 33.5939 27.0804C34.0536 27.4485 34.6053 27.7246 35.1569 27.9087C35.3408 28.0007 35.3408 28.0927 35.2489 28.2768C35.065 28.737 34.6972 28.921 34.2375 29.0131C33.0422 29.3812 31.8469 29.6573 30.6516 29.7493H30.5597C30.8355 30.0254 31.1113 30.2095 31.3872 30.3935C31.9388 30.6696 32.4905 30.8537 33.1341 31.0378C33.2261 31.0378 33.318 31.1298 33.2261 31.2218C32.7664 31.8661 32.3066 32.5103 31.663 32.9704C31.2033 33.4306 30.6516 33.4306 30.008 33.4306H27.8932C27.3416 33.4306 26.7899 33.4306 26.2382 33.5226C25.7785 33.6147 25.4107 33.7987 25.1349 34.1668C24.2154 35.1792 23.6638 36.4676 23.0201 37.6641L22.7443 38.2162C22.5604 38.9525 22.1007 39.3206 21.4571 39.5967C20.9054 39.6888 20.2618 40.0569 19.6182 40.425Z" fill="white"/>
<path opacity="0.98" d="M1.06617 25.6266L27.1874 0L29.4974 3.60938L4.79777 28.6043V28.6945L23.9889 48.2754L22.5673 52.3359L0 28.875L1.06617 25.6266Z" fill="white"/>
</svg>
