<svg width="22" height="21" viewBox="0 0 22 21" fill="none" xmlns="http://www.w3.org/2000/svg">
<path d="M9.67811 1.68328C10.1571 0.209181 12.2425 0.209184 12.7215 1.68328L14.0736 5.84458C14.2878 6.50382 14.9021 6.95016 15.5953 6.95016H19.9707C21.5207 6.95016 22.1651 8.93354 20.9112 9.84458L17.3714 12.4164C16.8106 12.8238 16.5759 13.546 16.7901 14.2053L18.1422 18.3666C18.6212 19.8407 16.934 21.0665 15.6801 20.1554L12.1403 17.5836C11.5795 17.1762 10.8201 17.1762 10.2593 17.5836L6.71953 20.1554C5.46559 21.0665 3.77842 19.8407 4.25739 18.3666L5.60948 14.2053C5.82368 13.546 5.58902 12.8238 5.02824 12.4164L1.48843 9.84458C0.234484 8.93354 0.878927 6.95016 2.42888 6.95016H6.80434C7.4975 6.95016 8.11183 6.50382 8.32603 5.84458L9.67811 1.68328Z" fill="url(#paint0_linear_1_702)"/>
<defs>
<linearGradient id="paint0_linear_1_702" x1="11.1998" y1="-3" x2="11.1998" y2="25.8" gradientUnits="userSpaceOnUse">
<stop stop-color="#FFCE50"/>
<stop offset="1" stop-color="#FE9D0B"/>
</linearGradient>
</defs>
</svg>
